<mxfile host="app.diagrams.net" modified="2021-03-02T08:20:25.253Z" agent="5.0 (Windows NT 10.0; Win64; x64) AppleWebKit/537.36 (KHTML, like Gecko) Chrome/88.0.4324.182 Safari/537.36 Edg/88.0.705.81" etag="-aMpmG4-hYHL_BLyFsLf" version="14.4.3" type="github">
  <diagram id="Vwi1EXBxK2TPIhp4Lb0i" name="Page-1">
    <mxGraphModel dx="172" dy="143" grid="1" gridSize="10" guides="1" tooltips="1" connect="1" arrows="1" fold="1" page="1" pageScale="1" pageWidth="1654" pageHeight="1169" math="0" shadow="0">
      <root>
        <mxCell id="0" />
        <mxCell id="1" parent="0" />
        <mxCell id="NHjuUeP-jw1T3mchbmi4-1" value="" style="endArrow=none;html=1;" parent="1" edge="1">
          <mxGeometry width="50" height="50" relative="1" as="geometry">
            <mxPoint x="1390" y="260" as="sourcePoint" />
            <mxPoint x="1450" y="260" as="targetPoint" />
          </mxGeometry>
        </mxCell>
        <mxCell id="NHjuUeP-jw1T3mchbmi4-2" value="" style="endArrow=none;html=1;" parent="1" edge="1">
          <mxGeometry width="50" height="50" relative="1" as="geometry">
            <mxPoint x="1375" y="270" as="sourcePoint" />
            <mxPoint x="1435" y="270" as="targetPoint" />
          </mxGeometry>
        </mxCell>
        <mxCell id="NHjuUeP-jw1T3mchbmi4-3" value="" style="endArrow=none;html=1;exitX=1;exitY=0.25;exitDx=0;exitDy=0;jumpStyle=arc;rounded=0;" parent="1" source="NHjuUeP-jw1T3mchbmi4-39" edge="1">
          <mxGeometry width="50" height="50" relative="1" as="geometry">
            <mxPoint x="890" y="370" as="sourcePoint" />
            <mxPoint x="1391.3326710668102" y="260" as="targetPoint" />
            <Array as="points">
              <mxPoint x="910" y="500" />
              <mxPoint x="910" y="260" />
            </Array>
          </mxGeometry>
        </mxCell>
        <mxCell id="NHjuUeP-jw1T3mchbmi4-4" value="" style="endArrow=none;html=1;exitX=0.25;exitY=0;exitDx=0;exitDy=0;rounded=0;" parent="1" source="NHjuUeP-jw1T3mchbmi4-42" edge="1">
          <mxGeometry width="50" height="50" relative="1" as="geometry">
            <mxPoint x="1025" y="490" as="sourcePoint" />
            <mxPoint x="1375" y="270" as="targetPoint" />
            <Array as="points">
              <mxPoint x="1030" y="270" />
            </Array>
          </mxGeometry>
        </mxCell>
        <mxCell id="NHjuUeP-jw1T3mchbmi4-5" style="edgeStyle=orthogonalEdgeStyle;rounded=0;orthogonalLoop=1;jettySize=auto;html=1;exitX=0.5;exitY=1;exitDx=0;exitDy=0;entryX=0.5;entryY=1;entryDx=0;entryDy=0;" parent="1" source="NHjuUeP-jw1T3mchbmi4-53" target="NHjuUeP-jw1T3mchbmi4-39" edge="1">
          <mxGeometry relative="1" as="geometry">
            <Array as="points">
              <mxPoint x="1510" y="730" />
              <mxPoint x="850" y="730" />
            </Array>
          </mxGeometry>
        </mxCell>
        <mxCell id="NHjuUeP-jw1T3mchbmi4-6" value="LO" style="edgeLabel;html=1;align=center;verticalAlign=middle;resizable=0;points=[];" parent="NHjuUeP-jw1T3mchbmi4-5" vertex="1" connectable="0">
          <mxGeometry x="-0.9669" y="-1" relative="1" as="geometry">
            <mxPoint as="offset" />
          </mxGeometry>
        </mxCell>
        <mxCell id="NHjuUeP-jw1T3mchbmi4-7" style="edgeStyle=orthogonalEdgeStyle;rounded=0;orthogonalLoop=1;jettySize=auto;html=1;exitX=0.25;exitY=1;exitDx=0;exitDy=0;entryX=0.75;entryY=1;entryDx=0;entryDy=0;" parent="1" source="NHjuUeP-jw1T3mchbmi4-53" target="NHjuUeP-jw1T3mchbmi4-39" edge="1">
          <mxGeometry relative="1" as="geometry">
            <Array as="points">
              <mxPoint x="1495" y="720" />
              <mxPoint x="870" y="720" />
            </Array>
          </mxGeometry>
        </mxCell>
        <mxCell id="NHjuUeP-jw1T3mchbmi4-8" value="HI" style="edgeLabel;html=1;align=center;verticalAlign=middle;resizable=0;points=[];" parent="NHjuUeP-jw1T3mchbmi4-7" vertex="1" connectable="0">
          <mxGeometry x="-0.9623" relative="1" as="geometry">
            <mxPoint as="offset" />
          </mxGeometry>
        </mxCell>
        <mxCell id="NHjuUeP-jw1T3mchbmi4-9" style="edgeStyle=orthogonalEdgeStyle;rounded=0;orthogonalLoop=1;jettySize=auto;html=1;entryX=0.75;entryY=1;entryDx=0;entryDy=0;fillColor=#f8cecc;strokeColor=#b85450;" parent="1" source="NHjuUeP-jw1T3mchbmi4-59" target="NHjuUeP-jw1T3mchbmi4-16" edge="1">
          <mxGeometry relative="1" as="geometry">
            <Array as="points">
              <mxPoint x="570" y="710" />
              <mxPoint x="390" y="710" />
            </Array>
            <mxPoint x="550" y="700" as="sourcePoint" />
          </mxGeometry>
        </mxCell>
        <mxCell id="NHjuUeP-jw1T3mchbmi4-10" style="edgeStyle=orthogonalEdgeStyle;rounded=0;orthogonalLoop=1;jettySize=auto;html=1;entryX=1;entryY=0.75;entryDx=0;entryDy=0;jumpStyle=arc;" parent="1" source="NHjuUeP-jw1T3mchbmi4-59" target="NHjuUeP-jw1T3mchbmi4-46" edge="1">
          <mxGeometry relative="1" as="geometry">
            <Array as="points">
              <mxPoint x="650" y="740" />
              <mxPoint x="1320" y="740" />
              <mxPoint x="1320" y="520" />
            </Array>
            <mxPoint x="670" y="720" as="sourcePoint" />
          </mxGeometry>
        </mxCell>
        <mxCell id="NHjuUeP-jw1T3mchbmi4-11" style="edgeStyle=orthogonalEdgeStyle;rounded=0;orthogonalLoop=1;jettySize=auto;html=1;jumpStyle=arc;" parent="1" target="NHjuUeP-jw1T3mchbmi4-53" edge="1">
          <mxGeometry relative="1" as="geometry">
            <Array as="points">
              <mxPoint x="1510" y="260" />
            </Array>
            <mxPoint x="1450" y="260" as="sourcePoint" />
          </mxGeometry>
        </mxCell>
        <mxCell id="NHjuUeP-jw1T3mchbmi4-12" style="edgeStyle=orthogonalEdgeStyle;rounded=0;orthogonalLoop=1;jettySize=auto;html=1;entryX=0.25;entryY=0;entryDx=0;entryDy=0;endFill=1;snapToPoint=0;" parent="1" target="NHjuUeP-jw1T3mchbmi4-53" edge="1">
          <mxGeometry relative="1" as="geometry">
            <Array as="points">
              <mxPoint x="1495" y="270" />
            </Array>
            <mxPoint x="1435" y="270" as="sourcePoint" />
          </mxGeometry>
        </mxCell>
        <mxCell id="NHjuUeP-jw1T3mchbmi4-13" value="PipelineController" style="rounded=0;whiteSpace=wrap;html=1;direction=south;" parent="1" vertex="1">
          <mxGeometry x="330" y="770" width="1210" height="40" as="geometry" />
        </mxCell>
        <mxCell id="NHjuUeP-jw1T3mchbmi4-14" style="edgeStyle=orthogonalEdgeStyle;rounded=0;orthogonalLoop=1;jettySize=auto;html=1;exitX=1;exitY=0.5;exitDx=0;exitDy=0;fillColor=#f8cecc;strokeColor=#b85450;" parent="1" source="NHjuUeP-jw1T3mchbmi4-16" target="NHjuUeP-jw1T3mchbmi4-19" edge="1">
          <mxGeometry relative="1" as="geometry" />
        </mxCell>
        <mxCell id="NHjuUeP-jw1T3mchbmi4-15" style="edgeStyle=orthogonalEdgeStyle;rounded=0;orthogonalLoop=1;jettySize=auto;html=1;entryX=0.25;entryY=1;entryDx=0;entryDy=0;" parent="1" target="NHjuUeP-jw1T3mchbmi4-16" edge="1">
          <mxGeometry relative="1" as="geometry">
            <mxPoint x="350" y="770" as="sourcePoint" />
          </mxGeometry>
        </mxCell>
        <mxCell id="NHjuUeP-jw1T3mchbmi4-16" value="PC" style="rounded=0;whiteSpace=wrap;html=1;fillColor=#dae8fc;strokeColor=#6c8ebf;" parent="1" vertex="1">
          <mxGeometry x="330" y="490" width="80" height="40" as="geometry" />
        </mxCell>
        <mxCell id="NHjuUeP-jw1T3mchbmi4-17" style="edgeStyle=orthogonalEdgeStyle;rounded=0;orthogonalLoop=1;jettySize=auto;html=1;exitX=1;exitY=0.5;exitDx=0;exitDy=0;entryX=0;entryY=0.5;entryDx=0;entryDy=0;fillColor=#f8cecc;strokeColor=#b85450;" parent="1" source="NHjuUeP-jw1T3mchbmi4-19" edge="1">
          <mxGeometry relative="1" as="geometry">
            <mxPoint x="530" y="510" as="targetPoint" />
          </mxGeometry>
        </mxCell>
        <mxCell id="NHjuUeP-jw1T3mchbmi4-18" style="edgeStyle=orthogonalEdgeStyle;rounded=0;orthogonalLoop=1;jettySize=auto;html=1;entryX=0.5;entryY=1;entryDx=0;entryDy=0;jumpStyle=arc;" parent="1" target="NHjuUeP-jw1T3mchbmi4-19" edge="1">
          <mxGeometry relative="1" as="geometry">
            <mxPoint x="470" y="770" as="sourcePoint" />
          </mxGeometry>
        </mxCell>
        <mxCell id="NHjuUeP-jw1T3mchbmi4-19" value="IF&lt;br&gt;|&lt;br&gt;ID" style="rounded=0;whiteSpace=wrap;html=1;fillColor=#dae8fc;strokeColor=#6c8ebf;" parent="1" vertex="1">
          <mxGeometry x="450" y="330" width="40" height="360" as="geometry" />
        </mxCell>
        <mxCell id="NHjuUeP-jw1T3mchbmi4-20" style="edgeStyle=orthogonalEdgeStyle;rounded=0;orthogonalLoop=1;jettySize=auto;html=1;exitX=1;exitY=0.25;exitDx=0;exitDy=0;entryX=0;entryY=0.5;entryDx=0;entryDy=0;" parent="1" source="NHjuUeP-jw1T3mchbmi4-24" target="NHjuUeP-jw1T3mchbmi4-36" edge="1">
          <mxGeometry relative="1" as="geometry" />
        </mxCell>
        <mxCell id="NHjuUeP-jw1T3mchbmi4-21" style="edgeStyle=orthogonalEdgeStyle;rounded=0;orthogonalLoop=1;jettySize=auto;html=1;exitX=1;exitY=0.5;exitDx=0;exitDy=0;entryX=-0.03;entryY=0.482;entryDx=0;entryDy=0;entryPerimeter=0;fillColor=#f8cecc;strokeColor=#b85450;" parent="1" source="NHjuUeP-jw1T3mchbmi4-24" target="NHjuUeP-jw1T3mchbmi4-39" edge="1">
          <mxGeometry relative="1" as="geometry" />
        </mxCell>
        <mxCell id="NHjuUeP-jw1T3mchbmi4-22" style="edgeStyle=orthogonalEdgeStyle;rounded=0;orthogonalLoop=1;jettySize=auto;html=1;entryX=0.5;entryY=1;entryDx=0;entryDy=0;jumpStyle=arc;" parent="1" target="NHjuUeP-jw1T3mchbmi4-24" edge="1">
          <mxGeometry relative="1" as="geometry">
            <mxPoint x="750" y="770" as="sourcePoint" />
          </mxGeometry>
        </mxCell>
        <mxCell id="NHjuUeP-jw1T3mchbmi4-23" style="edgeStyle=orthogonalEdgeStyle;rounded=0;orthogonalLoop=1;jettySize=auto;html=1;exitX=0.25;exitY=0;exitDx=0;exitDy=0;entryX=0.75;entryY=0;entryDx=0;entryDy=0;" parent="1" source="NHjuUeP-jw1T3mchbmi4-24" target="NHjuUeP-jw1T3mchbmi4-59" edge="1">
          <mxGeometry relative="1" as="geometry">
            <Array as="points">
              <mxPoint x="740" y="290" />
              <mxPoint x="650" y="290" />
            </Array>
            <mxPoint x="670" y="290" as="targetPoint" />
          </mxGeometry>
        </mxCell>
        <mxCell id="NHjuUeP-jw1T3mchbmi4-24" value="ID&lt;br&gt;|&lt;br&gt;EX" style="rounded=0;whiteSpace=wrap;html=1;fillColor=#dae8fc;strokeColor=#6c8ebf;" parent="1" vertex="1">
          <mxGeometry x="730" y="330" width="40" height="360" as="geometry" />
        </mxCell>
        <mxCell id="NHjuUeP-jw1T3mchbmi4-25" style="edgeStyle=orthogonalEdgeStyle;rounded=0;orthogonalLoop=1;jettySize=auto;html=1;exitX=1;exitY=0.5;exitDx=0;exitDy=0;entryX=0;entryY=0.5;entryDx=0;entryDy=0;fillColor=#f8cecc;strokeColor=#b85450;" parent="1" source="NHjuUeP-jw1T3mchbmi4-27" target="NHjuUeP-jw1T3mchbmi4-42" edge="1">
          <mxGeometry relative="1" as="geometry" />
        </mxCell>
        <mxCell id="NHjuUeP-jw1T3mchbmi4-26" style="edgeStyle=orthogonalEdgeStyle;rounded=0;orthogonalLoop=1;jettySize=auto;html=1;entryX=0.5;entryY=1;entryDx=0;entryDy=0;jumpStyle=arc;" parent="1" target="NHjuUeP-jw1T3mchbmi4-27" edge="1">
          <mxGeometry relative="1" as="geometry">
            <mxPoint x="950" y="770" as="sourcePoint" />
          </mxGeometry>
        </mxCell>
        <mxCell id="NHjuUeP-jw1T3mchbmi4-27" value="EX&lt;br&gt;|&lt;br&gt;MEM" style="rounded=0;whiteSpace=wrap;html=1;fillColor=#dae8fc;strokeColor=#6c8ebf;" parent="1" vertex="1">
          <mxGeometry x="930" y="330" width="40" height="360" as="geometry" />
        </mxCell>
        <mxCell id="NHjuUeP-jw1T3mchbmi4-28" style="edgeStyle=orthogonalEdgeStyle;rounded=0;orthogonalLoop=1;jettySize=auto;html=1;exitX=1;exitY=0.5;exitDx=0;exitDy=0;entryX=0;entryY=0.5;entryDx=0;entryDy=0;" parent="1" source="NHjuUeP-jw1T3mchbmi4-32" target="NHjuUeP-jw1T3mchbmi4-46" edge="1">
          <mxGeometry relative="1" as="geometry" />
        </mxCell>
        <mxCell id="NHjuUeP-jw1T3mchbmi4-29" style="edgeStyle=orthogonalEdgeStyle;rounded=0;orthogonalLoop=1;jettySize=auto;html=1;exitX=1;exitY=0.25;exitDx=0;exitDy=0;entryX=0;entryY=0.5;entryDx=0;entryDy=0;fillColor=#f8cecc;strokeColor=#b85450;" parent="1" source="NHjuUeP-jw1T3mchbmi4-32" target="NHjuUeP-jw1T3mchbmi4-44" edge="1">
          <mxGeometry relative="1" as="geometry" />
        </mxCell>
        <mxCell id="NHjuUeP-jw1T3mchbmi4-30" style="edgeStyle=orthogonalEdgeStyle;rounded=0;orthogonalLoop=1;jettySize=auto;html=1;exitX=1;exitY=0.75;exitDx=0;exitDy=0;entryX=0;entryY=0.5;entryDx=0;entryDy=0;" parent="1" source="NHjuUeP-jw1T3mchbmi4-32" target="NHjuUeP-jw1T3mchbmi4-48" edge="1">
          <mxGeometry relative="1" as="geometry" />
        </mxCell>
        <mxCell id="NHjuUeP-jw1T3mchbmi4-31" style="edgeStyle=orthogonalEdgeStyle;rounded=0;orthogonalLoop=1;jettySize=auto;html=1;entryX=0.5;entryY=1;entryDx=0;entryDy=0;jumpStyle=arc;" parent="1" target="NHjuUeP-jw1T3mchbmi4-32" edge="1">
          <mxGeometry relative="1" as="geometry">
            <mxPoint x="1150" y="770" as="sourcePoint" />
          </mxGeometry>
        </mxCell>
        <mxCell id="NHjuUeP-jw1T3mchbmi4-32" value="MEM&lt;br&gt;|&lt;br&gt;WB" style="rounded=0;whiteSpace=wrap;html=1;fillColor=#dae8fc;strokeColor=#6c8ebf;" parent="1" vertex="1">
          <mxGeometry x="1130" y="330" width="40" height="360" as="geometry" />
        </mxCell>
        <mxCell id="NHjuUeP-jw1T3mchbmi4-33" style="edgeStyle=orthogonalEdgeStyle;rounded=0;orthogonalLoop=1;jettySize=auto;html=1;exitX=1;exitY=0.5;exitDx=0;exitDy=0;entryX=0;entryY=0.5;entryDx=0;entryDy=0;fillColor=#f8cecc;strokeColor=#b85450;" parent="1" target="NHjuUeP-jw1T3mchbmi4-24" edge="1">
          <mxGeometry relative="1" as="geometry">
            <mxPoint x="690" y="510" as="sourcePoint" />
          </mxGeometry>
        </mxCell>
        <mxCell id="NHjuUeP-jw1T3mchbmi4-34" style="edgeStyle=orthogonalEdgeStyle;rounded=0;orthogonalLoop=1;jettySize=auto;html=1;exitX=0.5;exitY=1;exitDx=0;exitDy=0;" parent="1" source="NHjuUeP-jw1T3mchbmi4-59" edge="1">
          <mxGeometry relative="1" as="geometry">
            <mxPoint x="650" y="710" as="sourcePoint" />
            <mxPoint x="610" y="770" as="targetPoint" />
            <Array as="points">
              <mxPoint x="610" y="770" />
            </Array>
          </mxGeometry>
        </mxCell>
        <mxCell id="NHjuUeP-jw1T3mchbmi4-35" style="edgeStyle=orthogonalEdgeStyle;rounded=0;orthogonalLoop=1;jettySize=auto;html=1;exitX=0.5;exitY=1;exitDx=0;exitDy=0;entryX=0.5;entryY=0;entryDx=0;entryDy=0;" parent="1" source="NHjuUeP-jw1T3mchbmi4-36" target="NHjuUeP-jw1T3mchbmi4-39" edge="1">
          <mxGeometry relative="1" as="geometry" />
        </mxCell>
        <mxCell id="NHjuUeP-jw1T3mchbmi4-36" value="MULT&lt;br&gt;DIV" style="rounded=0;whiteSpace=wrap;html=1;" parent="1" vertex="1">
          <mxGeometry x="810" y="400" width="80" height="40" as="geometry" />
        </mxCell>
        <mxCell id="NHjuUeP-jw1T3mchbmi4-37" style="edgeStyle=orthogonalEdgeStyle;rounded=0;orthogonalLoop=1;jettySize=auto;html=1;exitX=1;exitY=0.5;exitDx=0;exitDy=0;entryX=0;entryY=0.5;entryDx=0;entryDy=0;fillColor=#f8cecc;strokeColor=#b85450;" parent="1" source="NHjuUeP-jw1T3mchbmi4-39" target="NHjuUeP-jw1T3mchbmi4-27" edge="1">
          <mxGeometry relative="1" as="geometry" />
        </mxCell>
        <mxCell id="NHjuUeP-jw1T3mchbmi4-38" style="edgeStyle=orthogonalEdgeStyle;rounded=0;orthogonalLoop=1;jettySize=auto;html=1;exitX=0.25;exitY=1;exitDx=0;exitDy=0;jumpStyle=arc;" parent="1" source="NHjuUeP-jw1T3mchbmi4-39" edge="1">
          <mxGeometry relative="1" as="geometry">
            <mxPoint x="830" y="770" as="targetPoint" />
          </mxGeometry>
        </mxCell>
        <mxCell id="NHjuUeP-jw1T3mchbmi4-39" value="ALU" style="rounded=0;whiteSpace=wrap;html=1;fillColor=#dae8fc;strokeColor=#6c8ebf;" parent="1" vertex="1">
          <mxGeometry x="810" y="490" width="80" height="40" as="geometry" />
        </mxCell>
        <mxCell id="NHjuUeP-jw1T3mchbmi4-40" style="edgeStyle=orthogonalEdgeStyle;rounded=0;orthogonalLoop=1;jettySize=auto;html=1;exitX=1;exitY=0.5;exitDx=0;exitDy=0;entryX=0;entryY=0.5;entryDx=0;entryDy=0;fillColor=#f8cecc;strokeColor=#b85450;" parent="1" source="NHjuUeP-jw1T3mchbmi4-42" target="NHjuUeP-jw1T3mchbmi4-32" edge="1">
          <mxGeometry relative="1" as="geometry" />
        </mxCell>
        <mxCell id="NHjuUeP-jw1T3mchbmi4-41" style="edgeStyle=orthogonalEdgeStyle;rounded=0;orthogonalLoop=1;jettySize=auto;html=1;exitX=0.5;exitY=1;exitDx=0;exitDy=0;jumpStyle=arc;" parent="1" source="NHjuUeP-jw1T3mchbmi4-42" edge="1">
          <mxGeometry relative="1" as="geometry">
            <mxPoint x="1050" y="770" as="targetPoint" />
          </mxGeometry>
        </mxCell>
        <mxCell id="NHjuUeP-jw1T3mchbmi4-42" value="MEM" style="rounded=0;whiteSpace=wrap;html=1;fillColor=#dae8fc;strokeColor=#6c8ebf;" parent="1" vertex="1">
          <mxGeometry x="1010" y="490" width="80" height="40" as="geometry" />
        </mxCell>
        <mxCell id="NHjuUeP-jw1T3mchbmi4-43" style="edgeStyle=orthogonalEdgeStyle;rounded=0;orthogonalLoop=1;jettySize=auto;html=1;exitX=1;exitY=0.5;exitDx=0;exitDy=0;entryX=0;entryY=0.5;entryDx=0;entryDy=0;" parent="1" source="NHjuUeP-jw1T3mchbmi4-44" target="NHjuUeP-jw1T3mchbmi4-50" edge="1">
          <mxGeometry relative="1" as="geometry" />
        </mxCell>
        <mxCell id="NHjuUeP-jw1T3mchbmi4-44" value="RegFIle" style="rounded=0;whiteSpace=wrap;html=1;fillColor=#dae8fc;strokeColor=#6c8ebf;" parent="1" vertex="1">
          <mxGeometry x="1210" y="400" width="80" height="40" as="geometry" />
        </mxCell>
        <mxCell id="NHjuUeP-jw1T3mchbmi4-45" style="edgeStyle=orthogonalEdgeStyle;rounded=0;orthogonalLoop=1;jettySize=auto;html=1;exitX=1;exitY=0.5;exitDx=0;exitDy=0;entryX=0;entryY=0.5;entryDx=0;entryDy=0;" parent="1" source="NHjuUeP-jw1T3mchbmi4-46" target="NHjuUeP-jw1T3mchbmi4-52" edge="1">
          <mxGeometry relative="1" as="geometry" />
        </mxCell>
        <mxCell id="NHjuUeP-jw1T3mchbmi4-46" value="CP0" style="rounded=0;whiteSpace=wrap;html=1;" parent="1" vertex="1">
          <mxGeometry x="1210" y="490" width="80" height="40" as="geometry" />
        </mxCell>
        <mxCell id="NHjuUeP-jw1T3mchbmi4-47" style="edgeStyle=orthogonalEdgeStyle;rounded=0;orthogonalLoop=1;jettySize=auto;html=1;exitX=1;exitY=0.5;exitDx=0;exitDy=0;entryX=0;entryY=0.5;entryDx=0;entryDy=0;" parent="1" source="NHjuUeP-jw1T3mchbmi4-48" target="NHjuUeP-jw1T3mchbmi4-53" edge="1">
          <mxGeometry relative="1" as="geometry" />
        </mxCell>
        <mxCell id="NHjuUeP-jw1T3mchbmi4-48" value="HILO" style="rounded=0;whiteSpace=wrap;html=1;" parent="1" vertex="1">
          <mxGeometry x="1210" y="580" width="80" height="40" as="geometry" />
        </mxCell>
        <mxCell id="NHjuUeP-jw1T3mchbmi4-49" style="edgeStyle=orthogonalEdgeStyle;rounded=0;orthogonalLoop=1;jettySize=auto;html=1;exitX=0.25;exitY=0;exitDx=0;exitDy=0;entryX=0.25;entryY=0;entryDx=0;entryDy=0;" parent="1" target="NHjuUeP-jw1T3mchbmi4-50" edge="1">
          <mxGeometry relative="1" as="geometry">
            <mxPoint x="1375" y="270" as="sourcePoint" />
          </mxGeometry>
        </mxCell>
        <mxCell id="NHjuUeP-jw1T3mchbmi4-50" value="RegRead&lt;br&gt;Proxy" style="rounded=0;whiteSpace=wrap;html=1;" parent="1" vertex="1">
          <mxGeometry x="1360" y="380" width="60" height="80" as="geometry" />
        </mxCell>
        <mxCell id="NHjuUeP-jw1T3mchbmi4-51" style="edgeStyle=orthogonalEdgeStyle;rounded=0;orthogonalLoop=1;jettySize=auto;html=1;exitX=0.25;exitY=0;exitDx=0;exitDy=0;entryX=0.25;entryY=0;entryDx=0;entryDy=0;" parent="1" target="NHjuUeP-jw1T3mchbmi4-52" edge="1">
          <mxGeometry relative="1" as="geometry">
            <mxPoint x="1435" y="270" as="sourcePoint" />
          </mxGeometry>
        </mxCell>
        <mxCell id="NHjuUeP-jw1T3mchbmi4-52" value="CP0Read&lt;br&gt;Proxy" style="rounded=0;whiteSpace=wrap;html=1;" parent="1" vertex="1">
          <mxGeometry x="1420" y="470" width="60" height="80" as="geometry" />
        </mxCell>
        <mxCell id="NHjuUeP-jw1T3mchbmi4-53" value="HILORead&lt;br&gt;Proxy" style="rounded=0;whiteSpace=wrap;html=1;" parent="1" vertex="1">
          <mxGeometry x="1480" y="560" width="60" height="80" as="geometry" />
        </mxCell>
        <mxCell id="NHjuUeP-jw1T3mchbmi4-54" style="edgeStyle=orthogonalEdgeStyle;rounded=0;orthogonalLoop=1;jettySize=auto;html=1;exitX=0.5;exitY=0;exitDx=0;exitDy=0;entryX=0.5;entryY=0;entryDx=0;entryDy=0;jumpStyle=arc;" parent="1" target="NHjuUeP-jw1T3mchbmi4-50" edge="1">
          <mxGeometry relative="1" as="geometry">
            <mxPoint x="1390" y="260" as="sourcePoint" />
          </mxGeometry>
        </mxCell>
        <mxCell id="NHjuUeP-jw1T3mchbmi4-55" style="edgeStyle=orthogonalEdgeStyle;rounded=0;orthogonalLoop=1;jettySize=auto;html=1;exitX=0.5;exitY=0;exitDx=0;exitDy=0;entryX=0.5;entryY=0;entryDx=0;entryDy=0;jumpStyle=arc;" parent="1" target="NHjuUeP-jw1T3mchbmi4-52" edge="1">
          <mxGeometry relative="1" as="geometry">
            <mxPoint x="1450" y="260" as="sourcePoint" />
          </mxGeometry>
        </mxCell>
        <mxCell id="NHjuUeP-jw1T3mchbmi4-56" style="edgeStyle=orthogonalEdgeStyle;rounded=0;orthogonalLoop=1;jettySize=auto;html=1;exitX=0.75;exitY=0;exitDx=0;exitDy=0;jumpStyle=arc;entryX=0.5;entryY=0;entryDx=0;entryDy=0;" parent="1" source="NHjuUeP-jw1T3mchbmi4-50" target="NHjuUeP-jw1T3mchbmi4-59" edge="1">
          <mxGeometry relative="1" as="geometry">
            <Array as="points">
              <mxPoint x="1405" y="250" />
              <mxPoint x="610" y="250" />
            </Array>
            <mxPoint x="650" y="250" as="targetPoint" />
          </mxGeometry>
        </mxCell>
        <mxCell id="NHjuUeP-jw1T3mchbmi4-57" style="edgeStyle=orthogonalEdgeStyle;rounded=0;orthogonalLoop=1;jettySize=auto;html=1;entryX=0.75;entryY=0;entryDx=0;entryDy=0;jumpStyle=arc;" parent="1" target="NHjuUeP-jw1T3mchbmi4-24" edge="1">
          <mxGeometry relative="1" as="geometry">
            <Array as="points">
              <mxPoint x="760" y="240" />
            </Array>
            <mxPoint x="1050" y="240" as="sourcePoint" />
          </mxGeometry>
        </mxCell>
        <mxCell id="NHjuUeP-jw1T3mchbmi4-58" style="edgeStyle=orthogonalEdgeStyle;rounded=0;orthogonalLoop=1;jettySize=auto;html=1;entryX=0.5;entryY=0;entryDx=0;entryDy=0;jumpStyle=arc;" parent="1" target="NHjuUeP-jw1T3mchbmi4-42" edge="1">
          <mxGeometry relative="1" as="geometry">
            <mxPoint x="1050" y="240" as="sourcePoint" />
          </mxGeometry>
        </mxCell>
        <mxCell id="NHjuUeP-jw1T3mchbmi4-59" value="&lt;blockquote style=&quot;margin: 0 0 0 40px ; border: none ; padding: 0px&quot;&gt;&lt;/blockquote&gt;" style="rounded=0;whiteSpace=wrap;html=1;align=left;" parent="1" vertex="1">
          <mxGeometry x="530" y="320" width="160" height="360" as="geometry" />
        </mxCell>
        <mxCell id="NHjuUeP-jw1T3mchbmi4-60" value="OperandGen" style="rounded=0;whiteSpace=wrap;html=1;" parent="1" vertex="1">
          <mxGeometry x="570" y="330" width="80" height="40" as="geometry" />
        </mxCell>
        <mxCell id="NHjuUeP-jw1T3mchbmi4-61" value="CP0Gen" style="rounded=0;whiteSpace=wrap;html=1;" parent="1" vertex="1">
          <mxGeometry x="570" y="530" width="80" height="40" as="geometry" />
        </mxCell>
        <mxCell id="NHjuUeP-jw1T3mchbmi4-62" value="ExceptionGen" style="rounded=0;whiteSpace=wrap;html=1;" parent="1" vertex="1">
          <mxGeometry x="570" y="580" width="80" height="40" as="geometry" />
        </mxCell>
        <mxCell id="NHjuUeP-jw1T3mchbmi4-63" value="FunctGen" style="rounded=0;whiteSpace=wrap;html=1;fillColor=#dae8fc;strokeColor=#6c8ebf;" parent="1" vertex="1">
          <mxGeometry x="570" y="430" width="80" height="40" as="geometry" />
        </mxCell>
        <mxCell id="NHjuUeP-jw1T3mchbmi4-64" value="MemGen" style="rounded=0;whiteSpace=wrap;html=1;" parent="1" vertex="1">
          <mxGeometry x="570" y="480" width="80" height="40" as="geometry" />
        </mxCell>
        <mxCell id="NHjuUeP-jw1T3mchbmi4-65" value="BranchGen" style="rounded=0;whiteSpace=wrap;html=1;fillColor=#dae8fc;strokeColor=#6c8ebf;" parent="1" vertex="1">
          <mxGeometry x="570" y="630" width="80" height="40" as="geometry" />
        </mxCell>
        <mxCell id="NHjuUeP-jw1T3mchbmi4-66" value="RegGen" style="rounded=0;whiteSpace=wrap;html=1;fillColor=#dae8fc;strokeColor=#6c8ebf;" parent="1" vertex="1">
          <mxGeometry x="570" y="380" width="80" height="40" as="geometry" />
        </mxCell>
        <mxCell id="NHjuUeP-jw1T3mchbmi4-67" style="edgeStyle=orthogonalEdgeStyle;rounded=0;orthogonalLoop=1;jettySize=auto;html=1;exitX=0.5;exitY=1;exitDx=0;exitDy=0;" parent="1" source="NHjuUeP-jw1T3mchbmi4-59" target="NHjuUeP-jw1T3mchbmi4-59" edge="1">
          <mxGeometry x="530" y="320" as="geometry" />
        </mxCell>
        <mxCell id="NHjuUeP-jw1T3mchbmi4-68" value="" style="endArrow=none;html=1;entryX=0.75;entryY=0;entryDx=0;entryDy=0;rounded=0;jumpStyle=arc;" parent="1" target="NHjuUeP-jw1T3mchbmi4-52" edge="1">
          <mxGeometry width="50" height="50" relative="1" as="geometry">
            <mxPoint x="1050" y="240" as="sourcePoint" />
            <mxPoint x="1270" y="460" as="targetPoint" />
            <Array as="points">
              <mxPoint x="1465" y="240" />
            </Array>
          </mxGeometry>
        </mxCell>
        <mxCell id="NHjuUeP-jw1T3mchbmi4-70" style="edgeStyle=orthogonalEdgeStyle;rounded=0;orthogonalLoop=1;jettySize=auto;html=1;exitX=0.75;exitY=0;exitDx=0;exitDy=0;entryX=1;entryY=0.25;entryDx=0;entryDy=0;jumpStyle=arc;" parent="1" source="NHjuUeP-jw1T3mchbmi4-42" target="NHjuUeP-jw1T3mchbmi4-46" edge="1">
          <mxGeometry relative="1" as="geometry">
            <Array as="points">
              <mxPoint x="1070" y="300" />
              <mxPoint x="1320" y="300" />
              <mxPoint x="1320" y="500" />
            </Array>
          </mxGeometry>
        </mxCell>
        <mxCell id="NHjuUeP-jw1T3mchbmi4-71" style="edgeStyle=orthogonalEdgeStyle;rounded=0;jumpStyle=arc;orthogonalLoop=1;jettySize=auto;html=1;entryX=0.5;entryY=0;entryDx=0;entryDy=0;endFill=1;" parent="1" target="NHjuUeP-jw1T3mchbmi4-44" edge="1">
          <mxGeometry relative="1" as="geometry">
            <mxPoint x="570" y="320" as="sourcePoint" />
            <Array as="points">
              <mxPoint x="570" y="320" />
              <mxPoint x="570" y="230" />
              <mxPoint x="1250" y="230" />
            </Array>
          </mxGeometry>
        </mxCell>
      </root>
    </mxGraphModel>
  </diagram>
</mxfile>
